<mxfile host="app.diagrams.net" agent="Mozilla/5.0 (Windows NT 10.0; Win64; x64) AppleWebKit/537.36 (KHTML, like Gecko) Chrome/137.0.0.0 Safari/537.36" version="27.1.4">
  <diagram name="Trang-1" id="__cjfd454wEy_0CORdd4">
    <mxGraphModel grid="1" page="1" gridSize="10" guides="1" tooltips="1" connect="1" arrows="1" fold="1" pageScale="1" pageWidth="827" pageHeight="1169" math="0" shadow="0">
      <root>
        <mxCell id="0" />
        <mxCell id="1" parent="0" />
        <mxCell id="BxbniZKwVc3OLu6fc59n-12" style="edgeStyle=orthogonalEdgeStyle;rounded=0;orthogonalLoop=1;jettySize=auto;html=1;exitX=0.5;exitY=1;exitDx=0;exitDy=0;entryX=0.5;entryY=0;entryDx=0;entryDy=0;" edge="1" parent="1" source="BxbniZKwVc3OLu6fc59n-1" target="BxbniZKwVc3OLu6fc59n-3">
          <mxGeometry relative="1" as="geometry" />
        </mxCell>
        <mxCell id="BxbniZKwVc3OLu6fc59n-1" value="" style="ellipse;whiteSpace=wrap;html=1;" vertex="1" parent="1">
          <mxGeometry x="160" y="40" width="120" height="80" as="geometry" />
        </mxCell>
        <mxCell id="BxbniZKwVc3OLu6fc59n-2" value="Begin" style="text;html=1;align=center;verticalAlign=middle;whiteSpace=wrap;rounded=0;" vertex="1" parent="1">
          <mxGeometry x="190" y="65" width="60" height="30" as="geometry" />
        </mxCell>
        <mxCell id="BxbniZKwVc3OLu6fc59n-13" style="edgeStyle=orthogonalEdgeStyle;rounded=0;orthogonalLoop=1;jettySize=auto;html=1;exitX=0.5;exitY=1;exitDx=0;exitDy=0;" edge="1" parent="1" source="BxbniZKwVc3OLu6fc59n-3" target="BxbniZKwVc3OLu6fc59n-6">
          <mxGeometry relative="1" as="geometry" />
        </mxCell>
        <mxCell id="BxbniZKwVc3OLu6fc59n-3" value="" style="shape=parallelogram;perimeter=parallelogramPerimeter;whiteSpace=wrap;html=1;fixedSize=1;" vertex="1" parent="1">
          <mxGeometry x="160" y="180" width="120" height="60" as="geometry" />
        </mxCell>
        <mxCell id="BxbniZKwVc3OLu6fc59n-4" value="input a= math&lt;div&gt;&amp;nbsp;b= physic&lt;/div&gt;&lt;div&gt;c=chemistry&lt;/div&gt;&lt;div&gt;&lt;br&gt;&lt;/div&gt;" style="text;html=1;align=center;verticalAlign=middle;whiteSpace=wrap;rounded=0;" vertex="1" parent="1">
          <mxGeometry x="175" y="195" width="90" height="30" as="geometry" />
        </mxCell>
        <mxCell id="BxbniZKwVc3OLu6fc59n-14" style="edgeStyle=orthogonalEdgeStyle;rounded=0;orthogonalLoop=1;jettySize=auto;html=1;exitX=0.5;exitY=1;exitDx=0;exitDy=0;entryX=0.5;entryY=0;entryDx=0;entryDy=0;" edge="1" parent="1" source="BxbniZKwVc3OLu6fc59n-6" target="BxbniZKwVc3OLu6fc59n-8">
          <mxGeometry relative="1" as="geometry" />
        </mxCell>
        <mxCell id="BxbniZKwVc3OLu6fc59n-6" value="" style="rounded=0;whiteSpace=wrap;html=1;" vertex="1" parent="1">
          <mxGeometry x="160" y="300" width="120" height="60" as="geometry" />
        </mxCell>
        <mxCell id="BxbniZKwVc3OLu6fc59n-7" value="avg=(a+b+c)/3" style="text;html=1;align=center;verticalAlign=middle;whiteSpace=wrap;rounded=0;" vertex="1" parent="1">
          <mxGeometry x="190" y="315" width="60" height="30" as="geometry" />
        </mxCell>
        <mxCell id="BxbniZKwVc3OLu6fc59n-15" style="edgeStyle=orthogonalEdgeStyle;rounded=0;orthogonalLoop=1;jettySize=auto;html=1;exitX=0.5;exitY=1;exitDx=0;exitDy=0;entryX=0.5;entryY=0;entryDx=0;entryDy=0;" edge="1" parent="1" source="BxbniZKwVc3OLu6fc59n-8" target="BxbniZKwVc3OLu6fc59n-9">
          <mxGeometry relative="1" as="geometry" />
        </mxCell>
        <mxCell id="BxbniZKwVc3OLu6fc59n-8" value="" style="shape=parallelogram;perimeter=parallelogramPerimeter;whiteSpace=wrap;html=1;fixedSize=1;" vertex="1" parent="1">
          <mxGeometry x="160" y="420" width="120" height="60" as="geometry" />
        </mxCell>
        <mxCell id="BxbniZKwVc3OLu6fc59n-9" value="" style="ellipse;whiteSpace=wrap;html=1;" vertex="1" parent="1">
          <mxGeometry x="160" y="540" width="120" height="80" as="geometry" />
        </mxCell>
        <mxCell id="BxbniZKwVc3OLu6fc59n-10" value="print average" style="text;html=1;align=center;verticalAlign=middle;whiteSpace=wrap;rounded=0;" vertex="1" parent="1">
          <mxGeometry x="190" y="435" width="60" height="30" as="geometry" />
        </mxCell>
        <mxCell id="BxbniZKwVc3OLu6fc59n-11" value="END" style="text;html=1;align=center;verticalAlign=middle;whiteSpace=wrap;rounded=0;" vertex="1" parent="1">
          <mxGeometry x="190" y="570" width="60" height="30" as="geometry" />
        </mxCell>
        <mxCell id="BxbniZKwVc3OLu6fc59n-16" value="&lt;h1 style=&quot;margin-top: 0px;&quot;&gt;Begin&lt;/h1&gt;&lt;div&gt;input a= math&lt;/div&gt;&lt;div&gt;input b = physic&lt;/div&gt;&lt;div&gt;input c= chemistry&lt;/div&gt;&lt;div&gt;&lt;br&gt;&lt;/div&gt;&lt;div&gt;avg= (a+b+c)/3&lt;/div&gt;&lt;div&gt;&lt;br&gt;&lt;/div&gt;&lt;div&gt;print(avg)&lt;/div&gt;&lt;div&gt;&lt;br&gt;&lt;/div&gt;&lt;div&gt;END&lt;/div&gt;" style="text;html=1;whiteSpace=wrap;overflow=hidden;rounded=0;" vertex="1" parent="1">
          <mxGeometry x="480" y="160" width="260" height="330" as="geometry" />
        </mxCell>
      </root>
    </mxGraphModel>
  </diagram>
</mxfile>
